<svg width="130" height="25" viewBox="0 0 177 25" fill="none" xmlns="http://www.w3.org/2000/svg">
<path d="M5.66198 0.69233C6.20647 1.07667 6.72266 1.48875 7.23626 1.91277C7.57638 2.19338 7.9196 2.47013 8.2627 2.74713C8.43923 2.88974 8.61559 3.03256 8.79178 3.17559C9.34971 3.62826 9.91219 4.07441 10.4795 4.51534C11.3275 5.17445 12.1623 5.84898 12.9961 6.52556C13.3709 6.82952 13.7472 7.13132 14.1253 7.4312C14.5912 7.80083 15.054 8.17423 15.5158 8.54894C16.3356 9.21405 17.16 9.8722 17.9936 10.5201C18.6661 11.044 19.3279 11.5804 19.9895 12.1178C20.5475 12.5703 21.1098 13.0164 21.6771 13.4573C22.4246 14.0382 23.1613 14.6315 23.896 15.2284C24.4509 15.6784 25.0105 16.1215 25.5751 16.5594C26.26 17.091 26.9325 17.6362 27.6014 18.1875C28.5654 18.9816 29.5418 19.7574 30.531 20.5202C30.6386 20.6047 30.7462 20.6892 30.857 20.7763C30.9482 20.8468 31.0393 20.9173 31.1332 20.9899C31.2074 21.0477 31.2816 21.1055 31.358 21.1651C31.6078 21.3345 31.6078 21.3345 32.0934 21.4273C32.0934 14.4137 32.0934 7.4001 32.0934 0.173955C33.2106 0.173955 34.3278 0.173955 35.4788 0.173955C35.4908 2.95422 35.5001 5.73447 35.5057 8.51476C35.5084 9.80578 35.5121 11.0968 35.518 12.3878C35.5233 13.5135 35.5266 14.6391 35.5278 15.7648C35.5284 16.3605 35.53 16.9561 35.5338 17.5517C35.5374 18.1133 35.5384 18.6748 35.5377 19.2363C35.5378 19.4415 35.5388 19.6468 35.5408 19.852C35.5532 21.1759 35.4915 22.4484 34.665 23.5494C33.8368 24.3362 32.9443 24.7892 31.7842 24.8372C29.801 24.7739 28.3612 23.2039 26.9194 22.012C26.4369 21.6143 25.9475 21.2268 25.453 20.8441C24.7706 20.3155 24.1008 19.7732 23.4349 19.2242C22.6938 18.6134 21.9462 18.0132 21.1873 17.4246C20.6067 16.9734 20.0343 16.5128 19.4636 16.0492C18.8175 15.5243 18.1679 15.0049 17.5106 14.4941C16.7632 13.9132 16.0266 13.32 15.292 12.7233C14.734 12.2708 14.1717 11.8247 13.6044 11.3838C12.8571 10.803 12.1205 10.2097 11.3859 9.61303C10.8279 9.16059 10.2656 8.71441 9.69831 8.27356C8.95178 7.69338 8.21598 7.10097 7.48233 6.50477C6.8247 5.97135 6.15984 5.44788 5.49016 4.92953C5.09404 4.62181 4.70984 4.30626 4.33552 3.97267C3.99805 3.63183 3.99805 3.63183 3.57871 3.67298C3.53574 10.6438 3.49278 17.6147 3.44851 24.7967C2.33135 24.7967 1.2142 24.7967 0.0631958 24.7967C0.0511268 21.9973 0.0418386 19.198 0.0362111 16.3985C0.0335285 15.0986 0.0298725 13.7988 0.0239057 12.4989C0.0187059 11.3656 0.0153524 10.2323 0.0141929 9.09899C0.0135154 8.4992 0.011929 7.89944 0.00812979 7.29966C0.00457852 6.73441 0.00350746 6.16921 0.0042874 5.60394C0.00414484 5.39718 0.00311857 5.19041 0.00111156 4.98366C-0.0110126 3.66954 0.063128 2.51635 0.876972 1.42939C2.23467 0.108771 3.98547 -0.251127 5.66198 0.69233Z" fill="#C6FF69"/>
<path d="M51.4643 0.157852C51.585 0.15763 51.7056 0.157409 51.8299 0.157181C52.2311 0.156756 52.6323 0.158176 53.0335 0.159596C53.3223 0.159669 53.6111 0.159628 53.8999 0.159481C54.6819 0.159407 55.4638 0.160929 56.2458 0.16274C57.0637 0.164363 57.8817 0.164513 58.6996 0.16482C60.0718 0.165534 61.444 0.167152 62.8162 0.169467C64.2291 0.171849 65.6421 0.173683 67.055 0.174783C67.1858 0.174885 67.1858 0.174885 67.3192 0.174989C67.7567 0.175327 68.1942 0.175655 68.6317 0.175977C72.2569 0.178685 75.882 0.183295 79.5072 0.18902C79.5072 1.30093 79.5072 2.41285 79.5072 3.55845C78.9635 3.55916 78.9635 3.55916 78.4087 3.55989C74.9946 3.56458 71.5805 3.57212 68.1664 3.58229C67.8169 3.58332 67.4673 3.58434 67.1178 3.58535C67.0309 3.5856 66.944 3.58585 66.8545 3.58611C65.4493 3.59013 64.0441 3.59233 62.6389 3.59386C61.1961 3.59547 59.7533 3.59908 58.3105 3.60441C57.5005 3.60734 56.6905 3.60937 55.8805 3.60924C55.1176 3.60914 54.3548 3.61147 53.592 3.61563C53.3125 3.61673 53.0329 3.61696 52.7534 3.61623C52.3706 3.61536 51.988 3.6177 51.6053 3.62079C51.4407 3.61928 51.4407 3.61928 51.2729 3.61774C50.2531 3.63226 49.3008 3.92083 48.5349 4.6114C47.0282 6.47084 47.5495 8.36007 47.4769 10.8157C58.0469 10.8157 68.6169 10.8157 79.5072 10.8157C79.5072 11.9276 79.5072 13.0395 79.5072 14.1851C68.9372 14.1851 58.3672 14.1851 47.4769 14.1851C47.3277 17.5775 47.3277 17.5775 48.4047 20.3165C49.4312 21.2716 50.553 21.4613 51.9028 21.4629C52.0798 21.4638 52.0798 21.4638 52.2605 21.4648C52.6562 21.4668 53.0518 21.4679 53.4474 21.469C53.731 21.4702 54.0146 21.4715 54.2982 21.4729C55.0683 21.4764 55.8385 21.4791 56.6086 21.4817C57.4134 21.4845 58.2181 21.4881 59.0228 21.4915C60.5469 21.498 62.0709 21.5038 63.5949 21.5094C65.3299 21.5158 67.0649 21.5229 68.7999 21.5301C72.369 21.5449 75.9381 21.5587 79.5072 21.572C79.5072 22.6411 79.5072 23.7103 79.5072 24.8118C75.7631 24.8178 72.0191 24.8224 68.275 24.8252C66.5366 24.8266 64.7981 24.8284 63.0596 24.8314C61.5441 24.8339 60.0286 24.8356 58.5131 24.8362C57.7109 24.8365 56.9087 24.8373 56.1064 24.8392C55.3508 24.841 54.5951 24.8415 53.8394 24.8411C53.5627 24.8412 53.2859 24.8417 53.0091 24.8427C50.3461 24.8518 48.086 24.6091 46.0249 22.7439C44.5978 21.2744 44.05 19.4585 44.0559 17.4564C44.0552 17.3374 44.0545 17.2184 44.0539 17.0957C44.0521 16.7063 44.0522 16.317 44.0525 15.9276C44.052 15.6542 44.0514 15.3809 44.0508 15.1075C44.0498 14.5361 44.0498 13.9646 44.0505 13.3932C44.0513 12.6644 44.0491 11.9356 44.0461 11.2068C44.0441 10.6427 44.044 10.0785 44.0444 9.5144C44.0444 9.24585 44.0437 8.9773 44.0424 8.70875C44.0309 6.05529 44.3859 3.98662 46.3051 2.00333C47.798 0.728724 49.5202 0.144578 51.4643 0.157852Z" fill="#C6FF69"/>
<path d="M88.0072 0.200797C93.0068 -0.129998 93.0068 -0.129998 94.088 0.803806C94.3778 1.12118 94.642 1.44478 94.8848 1.7992C95.0871 2.0839 95.3277 2.29131 95.5997 2.50918C96.3166 3.12405 97.0153 3.7591 97.7176 4.39032C98.2106 4.83287 98.7042 5.27437 99.2048 5.70853C99.9326 6.33983 100.647 6.98618 101.363 7.63016C102.028 8.22654 102.696 8.81726 103.371 9.40195C103.567 9.57199 103.762 9.74208 103.957 9.91222C104.045 9.98823 104.132 10.0642 104.222 10.1426C104.285 10.1975 104.348 10.2525 104.413 10.3091C105.008 10.1475 105.318 9.82091 105.731 9.39131C106.05 9.06702 106.391 8.77476 106.736 8.47859C107.27 8.01662 107.794 7.54157 108.319 7.06926C109.555 5.95882 109.555 5.95882 110.134 5.45744C110.68 4.98402 111.214 4.49747 111.749 4.01166C112.117 3.68019 112.49 3.3554 112.864 3.03161C113.197 2.7397 113.525 2.44236 113.853 2.1447C115.062 1.04808 115.062 1.04808 115.611 0.589578C115.678 0.522276 115.745 0.454974 115.814 0.385632C116.281 0.113265 116.739 0.152837 117.265 0.16283C117.428 0.163655 117.428 0.163655 117.595 0.164497C117.943 0.166669 118.29 0.171548 118.638 0.176498C118.874 0.178449 119.11 0.180222 119.346 0.181814C119.924 0.186095 120.501 0.192803 121.079 0.200797C120.773 0.587149 120.482 0.937491 120.103 1.25375C119.638 1.64912 119.185 2.056 118.735 2.46869C118.306 2.86255 117.875 3.25423 117.433 3.63503C116.928 4.07088 116.437 4.52059 115.945 4.97089C115.317 5.54553 114.683 6.11353 114.048 6.68048C113.831 6.87483 113.614 7.06922 113.397 7.26365C112.529 8.04121 111.661 8.81877 110.793 9.59634C110.685 9.69289 110.577 9.78945 110.466 9.88893C110.253 10.0801 110.039 10.2711 109.826 10.462C108.971 11.2259 108.123 11.9975 107.277 12.7714C107.799 13.2979 108.337 13.806 108.881 14.3103C108.968 14.3911 109.055 14.4719 109.144 14.5552C109.649 15.0219 110.157 15.4823 110.679 15.9297C111.315 16.479 111.936 17.0469 112.561 17.6089C113.051 18.0489 113.542 18.4878 114.04 18.919C114.586 19.3922 115.12 19.8786 115.655 20.3643C116.026 20.6989 116.402 21.0273 116.78 21.3544C117.081 21.6174 117.38 21.8837 117.678 22.1507C117.787 22.2488 117.896 22.3468 118.009 22.4479C118.234 22.65 118.457 22.8528 118.68 23.0564C119.268 23.5899 119.858 24.0931 120.506 24.5522C120.597 24.6224 120.597 24.6224 120.688 24.694C120.688 24.7368 120.688 24.7795 120.688 24.8236C119.996 24.8625 119.305 24.8904 118.612 24.909C118.377 24.9168 118.142 24.9273 117.908 24.9409C115.752 25.0625 115.752 25.0625 114.851 24.2837C114.521 23.9598 114.22 23.6189 113.918 23.2685C113.739 23.1055 113.559 22.945 113.373 22.7906C112.993 22.4641 112.621 22.1306 112.25 21.7943C111.81 21.3986 111.362 21.0208 110.899 20.6523C110.109 20.017 109.376 19.3259 108.637 18.633C108.231 18.2519 107.816 17.882 107.393 17.5193C107.09 17.2581 106.793 16.9911 106.496 16.724C106.387 16.6268 106.278 16.5295 106.166 16.4294C105.958 16.2422 105.752 16.0527 105.549 15.8604C105.459 15.7765 105.369 15.6926 105.276 15.6062C105.157 15.4935 105.157 15.4935 105.036 15.3784C104.814 15.2101 104.814 15.2101 104.552 15.2418C104.191 15.4044 103.953 15.628 103.664 15.8978C103.549 16.0037 103.435 16.1096 103.316 16.2188C103.206 16.3213 103.095 16.4239 102.981 16.5296C102.808 16.6816 102.634 16.8329 102.46 16.9832C102.066 17.3249 101.676 17.6713 101.288 18.0199C100.817 18.4429 100.342 18.8607 99.8639 19.2754C99.5551 19.5455 99.2496 19.8192 98.9444 20.0934C98.4734 20.5164 97.9986 20.9342 97.5203 21.3489C97.2114 21.619 96.9059 21.8927 96.6007 22.1669C95.6642 23.008 95.6642 23.008 95.1852 23.4062C94.9001 23.6521 94.9001 23.6521 94.6645 23.9541C94.1812 24.4966 93.7579 24.8388 93.0245 24.9181C92.3438 24.9526 91.6661 24.9256 90.9856 24.8965C90.7469 24.8906 90.5082 24.8853 90.2695 24.8805C89.6887 24.8678 89.1085 24.8477 88.528 24.8236C88.8823 24.4692 89.2369 24.1163 89.6047 23.7757C89.6796 23.7064 89.7544 23.6371 89.8315 23.5657C89.9089 23.4944 89.9863 23.423 90.0661 23.3495C90.1875 23.2374 90.1875 23.2374 90.3113 23.123C90.7988 22.6744 91.2907 22.2322 91.7933 21.8004C92.0971 21.5374 92.3958 21.2691 92.6946 21.0006C93.1655 20.5776 93.6403 20.1598 94.1187 19.7451C94.4275 19.475 94.733 19.2013 95.0382 18.9271C95.5092 18.5041 95.984 18.0863 96.4623 17.6716C96.7712 17.4015 97.0767 17.1278 97.3819 16.8536C97.8528 16.4306 98.3277 16.0128 98.806 15.5981C99.2264 15.2304 99.6409 14.8562 100.056 14.4829C100.429 14.1503 100.806 13.8231 101.185 13.4978C101.446 13.2647 101.693 13.02 101.939 12.7714C101.36 12.1811 100.771 11.6137 100.142 11.0755C99.8032 10.7819 99.4715 10.4811 99.1397 10.1795C98.7336 9.81078 98.3262 9.44445 97.9109 9.08606C97.3968 8.64162 96.8964 8.18263 96.3955 7.72362C95.9515 7.31739 95.5015 6.91928 95.0459 6.52608C94.5885 6.1261 94.1407 5.71549 93.6909 5.30709C93.4075 5.05156 93.1218 4.7996 92.8329 4.55028C92.3188 4.10584 91.8185 3.64685 91.3176 3.18784C90.8745 2.78251 90.4255 2.38527 89.9709 1.99283C88.6322 0.822846 88.6322 0.822846 88.0072 0.200797Z" fill="#C6FF69"/>
<path d="M129.579 0.188599C130.696 0.188599 131.813 0.188599 132.964 0.188599C132.964 8.31412 132.964 16.4396 132.964 24.8114C131.847 24.8114 130.73 24.8114 129.579 24.8114C129.579 16.6859 129.579 8.56035 129.579 0.188599Z" fill="#C6FF69"/>
<path d="M148.803 0.166145C148.983 0.165979 148.983 0.165979 149.167 0.16581C149.57 0.165596 149.972 0.166309 150.375 0.167018C150.664 0.167054 150.953 0.167034 151.241 0.16696C152.026 0.166923 152.81 0.167686 153.594 0.16859C154.413 0.169399 155.233 0.169476 156.052 0.16963C157.427 0.169987 158.803 0.170797 160.178 0.171953C161.594 0.173143 163.011 0.17406 164.427 0.174611C164.558 0.174662 164.558 0.174662 164.692 0.174714C165.13 0.174883 165.568 0.175047 166.006 0.175208C169.64 0.176563 173.274 0.178869 176.908 0.18173C176.908 1.29364 176.908 2.40556 176.908 3.55116C176.364 3.55187 176.364 3.55187 175.81 3.5526C172.396 3.55729 168.981 3.56483 165.567 3.575C165.218 3.57603 164.868 3.57705 164.519 3.57806C164.432 3.57831 164.345 3.57856 164.255 3.57882C162.85 3.58284 161.445 3.58504 160.04 3.58657C158.597 3.58818 157.154 3.59179 155.711 3.59712C154.901 3.60005 154.091 3.60208 153.281 3.60195C152.519 3.60185 151.756 3.60418 150.993 3.60834C150.713 3.60944 150.434 3.60966 150.154 3.60894C149.772 3.60807 149.389 3.61041 149.006 3.6135C148.842 3.61199 148.842 3.61199 148.674 3.61045C147.68 3.62461 146.757 3.8699 146.05 4.58791C145.964 4.58791 145.878 4.58791 145.789 4.58791C145.733 4.70068 145.733 4.70068 145.676 4.81571C145.585 4.99549 145.49 5.17352 145.39 5.34826C144.923 6.23206 144.874 7.10512 145.008 8.08694C145.178 8.55395 145.403 8.95823 145.659 9.38288C145.702 9.51117 145.745 9.63947 145.789 9.77166C146.028 9.917 146.028 9.917 146.31 10.0308C146.441 10.0972 146.441 10.0972 146.575 10.165C146.706 10.2309 146.706 10.2309 146.839 10.2981C146.97 10.3645 146.97 10.3645 147.104 10.4323C147.637 10.6838 148.064 10.6955 148.649 10.6967C148.742 10.6971 148.834 10.6974 148.93 10.6978C149.242 10.6989 149.554 10.6991 149.865 10.6993C150.089 10.6999 150.312 10.7005 150.535 10.7012C151.017 10.7027 151.498 10.7038 151.98 10.7046C152.742 10.706 153.505 10.7086 154.267 10.7115C156.435 10.7195 158.603 10.7265 160.771 10.7308C161.968 10.7332 163.165 10.737 164.362 10.7422C164.995 10.745 165.628 10.747 166.261 10.7473C166.858 10.7475 167.454 10.7496 168.05 10.753C168.268 10.7539 168.486 10.7542 168.704 10.7538C171.043 10.7498 173.053 11.1732 174.792 12.8374C176.127 14.2208 176.888 15.8449 176.949 17.7741C176.908 19.5593 176.301 21.3305 175.056 22.6515C172.812 24.6831 170.465 24.8443 167.582 24.8339C167.297 24.8339 167.012 24.8339 166.727 24.8341C165.957 24.8341 165.186 24.8326 164.416 24.8308C163.61 24.8292 162.803 24.829 161.997 24.8287C160.472 24.8279 158.946 24.8258 157.421 24.8232C155.684 24.8203 153.946 24.8189 152.209 24.8176C148.637 24.8149 145.065 24.8102 141.493 24.8045C141.493 23.7354 141.493 22.6662 141.493 21.5647C141.85 21.5639 142.208 21.5632 142.576 21.5624C145.944 21.555 149.312 21.5456 152.681 21.5341C154.412 21.5283 156.144 21.5232 157.875 21.5198C159.385 21.5168 160.894 21.5125 162.404 21.5065C163.203 21.5034 164.002 21.501 164.801 21.5002C165.554 21.4994 166.306 21.4968 167.059 21.4928C167.334 21.4917 167.61 21.4912 167.886 21.4915C168.264 21.4917 168.641 21.4895 169.019 21.4868C169.127 21.4874 169.235 21.488 169.346 21.4887C170.428 21.4758 171.404 21.2645 172.221 20.5279C172.307 20.5279 172.393 20.5279 172.481 20.5279C172.519 20.4533 172.556 20.3786 172.595 20.3016C172.688 20.1161 172.782 19.9308 172.876 19.7458C172.92 19.6591 172.965 19.5724 173.01 19.4831C173.055 19.396 173.099 19.309 173.145 19.2193C173.54 18.3897 173.538 17.4736 173.255 16.6082C172.762 15.5437 172.201 15.0108 171.166 14.4954C170.272 14.1685 169.285 14.2538 168.345 14.2576C168.123 14.257 167.901 14.2563 167.679 14.2555C167.203 14.2539 166.726 14.2536 166.25 14.2542C165.495 14.2551 164.74 14.253 163.986 14.2505C162.382 14.2456 160.779 14.244 159.176 14.2426C157.447 14.2412 155.718 14.2392 153.989 14.2335C153.24 14.2311 152.492 14.2306 151.743 14.2315C151.275 14.2317 150.807 14.2303 150.339 14.2285C150.124 14.228 149.908 14.2281 149.693 14.229C147.265 14.238 145.193 13.8089 143.387 12.0841C141.972 10.5119 141.443 8.81911 141.465 6.74646C141.576 4.82874 142.438 3.17008 143.836 1.86645C145.245 0.651439 146.971 0.159978 148.803 0.166145Z" fill="#C6FF69"/>
</svg>
